<?xml version="1.0" encoding="UTF-8"?>
<!DOCTYPE svg PUBLIC "-//W3C//DTD SVG 1.1//EN" "http://www.w3.org/Graphics/SVG/1.1/DTD/svg11.dtd">
<svg xmlns="http://www.w3.org/2000/svg" version="1.1" width="400px" height="135px" style="shape-rendering:geometricPrecision; text-rendering:geometricPrecision; image-rendering:optimizeQuality; fill-rule:evenodd; clip-rule:evenodd" xmlns:xlink="http://www.w3.org/1999/xlink">
<g><path style="opacity:0.052" fill="#f6f6f6" d="M 74.5,19.5 C 82.2865,19.88 90.2865,20.88 98.5,22.5C 105.889,26.4331 112.389,31.4331 118,37.5C 119.167,41.1667 120.333,44.8333 121.5,48.5C 119.851,60.2763 116.685,71.6096 112,82.5C 111.207,88.8849 111.374,95.2182 112.5,101.5C 111.764,103.541 110.931,105.541 110,107.5C 106.333,112.167 102.667,116.833 99,121.5C 91.4504,126.611 83.2837,128.111 74.5,126C 67.2989,123.769 60.2989,121.269 53.5,118.5C 44.0318,118.956 34.6984,118.123 25.5,116C 18.7025,110.87 12.5359,105.037 7,98.5C 7.02504,95.128 6.52504,91.628 5.5,88C 7.20032,77.6272 9.70032,67.4605 13,57.5C 13.1988,50.1153 13.8655,42.7819 15,35.5C 17.5025,30.4903 20.5025,25.8236 24,21.5C 32.8508,12.9089 43.6842,10.0756 56.5,13C 55.8333,13.3333 55.1667,13.6667 54.5,14C 59.9524,13.6888 65.2857,14.6888 70.5,17C 69.1667,17.3333 67.8333,17.6667 66.5,18C 69.1168,18.8215 71.7835,19.3215 74.5,19.5 Z"/></g>
<g><path style="opacity:0.949" fill="#a3a3a3" d="M 75.5,22.5 C 60.8295,22.3334 46.1629,22.5001 31.5,23C 29.5932,24.122 27.5932,24.9553 25.5,25.5C 29.5706,18.3749 35.7373,14.3749 44,13.5C 54.8435,15.6657 65.3435,18.6657 75.5,22.5 Z"/></g>
<g><path style="opacity:0.004" fill="#fefffe" d="M 74.5,18.5 C 75.8333,19.1667 75.8333,19.1667 74.5,18.5 Z"/></g>
<g><path style="opacity:0.991" fill="#000101" d="M 75.5,22.5 C 81.5092,22.3338 87.5092,22.5005 93.5,23C 98.8237,24.5206 103.157,27.3539 106.5,31.5C 107.653,33.8068 108.82,36.1401 110,38.5C 110.5,52.8295 110.667,67.1628 110.5,81.5C 110.839,88.5736 110.339,95.5736 109,102.5C 107.197,106.477 104.697,109.811 101.5,112.5C 98.9764,113.927 96.3098,115.094 93.5,116C 79.1705,116.5 64.8372,116.667 50.5,116.5C 37.7226,119.305 27.0559,115.972 18.5,106.5C 17.9695,104.076 17.1362,101.743 16,99.5C 15.5001,85.8374 15.3334,72.1707 15.5,58.5C 15.3338,52.1579 15.5005,45.8246 16,39.5C 17.7932,33.8783 20.9599,29.2116 25.5,25.5C 27.5932,24.9553 29.5932,24.122 31.5,23C 46.1629,22.5001 60.8295,22.3334 75.5,22.5 Z"/></g>
<g><path style="opacity:0.939" fill="#a6a6a6" d="M 106.5,31.5 C 114.173,35.655 118.506,42.155 119.5,51C 117.373,61.5364 114.373,71.7031 110.5,81.5C 110.667,67.1628 110.5,52.8295 110,38.5C 108.82,36.1401 107.653,33.8068 106.5,31.5 Z"/></g>
<g><path style="opacity:0.996" fill="#2884b9" d="M 51.5,35.5 C 59.5,35.5 67.5,35.5 75.5,35.5C 75.6495,36.552 75.4828,37.552 75,38.5C 69.3301,43.0036 64.1635,48.0036 59.5,53.5C 56.8333,53.5 54.1667,53.5 51.5,53.5C 51.9856,48.3011 51.3189,43.3011 49.5,38.5C 50.1925,37.4822 50.8592,36.4822 51.5,35.5 Z"/></g>
<g><path style="opacity:0.996" fill="#33a8eb" d="M 51.5,35.5 C 50.8592,36.4822 50.1925,37.4822 49.5,38.5C 51.3189,43.3011 51.9856,48.3011 51.5,53.5C 51.5,53.8333 51.5,54.1667 51.5,54.5C 51.5,56.5 51.5,58.5 51.5,60.5C 50.1667,60.5 48.8333,60.5 47.5,60.5C 46.1969,66.5761 44.1969,72.4094 41.5,78C 42.7766,80.4659 42.7766,82.9659 41.5,85.5C 39.4618,87.97 37.7952,90.6366 36.5,93.5C 37.4512,88.3265 38.7845,83.3265 40.5,78.5C 36.3668,78.3576 33.7001,76.3576 32.5,72.5C 32.5,70.5 32.5,68.5 32.5,66.5C 34.1935,63.8103 36.5268,61.8103 39.5,60.5C 45.3816,61.7366 48.3816,59.4033 48.5,53.5C 45.8333,53.5 43.1667,53.5 40.5,53.5C 36.9854,52.6547 34.3187,50.6547 32.5,47.5C 31.8404,42.6527 33.5071,38.8194 37.5,36C 42.1548,35.5008 46.8215,35.3342 51.5,35.5 Z"/></g>
<g><path style="opacity:0.06" fill="#ebebeb" d="M 187.5,36.5 C 190.365,36.0548 192.865,36.7215 195,38.5C 195.5,60.4975 195.667,82.4975 195.5,104.5C 192.167,104.5 188.833,104.5 185.5,104.5C 184.709,84.4506 184.375,64.284 184.5,44C 184.548,41.078 185.548,38.578 187.5,36.5 Z"/></g>
<g><path style="opacity:0.996" fill="#1e6289" d="M 75.5,35.5 C 78.8483,36.0846 81.8483,37.418 84.5,39.5C 81.827,44.6866 78.1603,49.1866 73.5,53C 68.8452,53.4992 64.1785,53.6658 59.5,53.5C 64.1635,48.0036 69.3301,43.0036 75,38.5C 75.4828,37.552 75.6495,36.552 75.5,35.5 Z"/></g>
<g><path style="opacity:0.034" fill="#f3f3f3" d="M 310.5,39.5 C 315.844,40.0135 319.178,42.8469 320.5,48C 317.115,53.4614 312.615,54.6281 307,51.5C 306.077,49.9656 305.577,48.299 305.5,46.5C 306.742,43.915 308.409,41.5817 310.5,39.5 Z"/></g>
<g><path style="opacity:0.089" fill="#f1f1f1" d="M 164.5,43.5 C 169.228,44.5991 171.895,47.5991 172.5,52.5C 171.27,56.3478 171.27,60.3478 172.5,64.5C 171.723,66.4466 170.723,68.2799 169.5,70C 172.208,72.5734 174.042,75.7401 175,79.5C 175.226,83.8874 175.726,88.2207 176.5,92.5C 175.995,93.9185 174.995,94.5852 173.5,94.5C 174.953,95.8249 174.619,96.6582 172.5,97C 173.451,97.7175 173.617,98.5509 173,99.5C 170.92,101.123 168.754,102.623 166.5,104C 154.838,104.5 143.171,104.667 131.5,104.5C 131.467,86.3211 131.467,68.3211 131.5,50.5C 129.083,48.5065 129.083,46.6732 131.5,45C 130.353,42.9154 131.02,41.4154 133.5,40.5C 143.221,42.0416 153.054,43.3749 163,44.5C 163.765,44.4301 164.265,44.0967 164.5,43.5 Z M 145.5,52.5 C 150.951,51.779 155.785,53.1123 160,56.5C 160.605,64.228 156.938,67.8947 149,67.5C 143.491,68.0074 141.325,65.5074 142.5,60C 142.833,58.1667 143.167,56.3333 143.5,54.5C 144.522,54.1445 145.189,53.4778 145.5,52.5 Z M 160.5,92.5 C 160.082,93.2216 159.416,93.7216 158.5,94C 145.163,97.6599 139.996,92.8266 143,79.5C 148.396,77.0382 153.896,76.8715 159.5,79C 164.395,83.0915 164.728,87.5915 160.5,92.5 Z"/></g>
<g><path style="opacity:0.95" fill="#000000" d="M 187.5,39.5 C 189.833,39.5 192.167,39.5 194.5,39.5C 194.5,60.8333 194.5,82.1667 194.5,103.5C 192.167,103.5 189.833,103.5 187.5,103.5C 187.5,82.1667 187.5,60.8333 187.5,39.5 Z"/></g>
<g><path style="opacity:0.004" fill="#fefffe" d="M 164.5,43.5 C 163.761,43.631 163.094,43.4643 162.5,43C 163.437,42.3083 164.103,42.475 164.5,43.5 Z"/></g>
<g><path style="opacity:0.959" fill="#0d0d0d" d="M 310.5,42.5 C 316.705,42.0371 318.705,44.7037 316.5,50.5C 308.79,52.1232 306.79,49.4565 310.5,42.5 Z"/></g>
<g><path style="opacity:0.967" fill="#0b0b0b" d="M 173.5,94.5 C 170.946,98.4575 167.279,100.957 162.5,102C 152.557,103.365 142.557,103.865 132.5,103.5C 132.5,83.8333 132.5,64.1667 132.5,44.5C 141.173,44.3336 149.84,44.5002 158.5,45C 169.169,46.7043 173.003,52.871 170,63.5C 168.737,67.2189 166.237,69.7189 162.5,71C 170.817,72.8178 174.817,77.9844 174.5,86.5C 174.297,89.1969 173.964,91.8636 173.5,94.5 Z M 145.5,52.5 C 145.189,53.4778 144.522,54.1445 143.5,54.5C 143.167,56.3333 142.833,58.1667 142.5,60C 141.325,65.5074 143.491,68.0074 149,67.5C 156.938,67.8947 160.605,64.228 160,56.5C 155.785,53.1123 150.951,51.779 145.5,52.5 Z M 160.5,92.5 C 164.728,87.5915 164.395,83.0915 159.5,79C 153.896,76.8715 148.396,77.0382 143,79.5C 139.996,92.8266 145.163,97.6599 158.5,94C 159.416,93.7216 160.082,93.2216 160.5,92.5 Z"/></g>
<g><path style="opacity:0.996" fill="#164764" d="M 84.5,39.5 C 87.4707,41.4426 89.4707,44.1092 90.5,47.5C 86.0467,51.6117 82.3801,56.2783 79.5,61.5C 77.5,61.1667 75.5,60.8333 73.5,60.5C 74.7525,58.6612 74.7525,56.8278 73.5,55C 66.1742,54.5003 58.8409,54.3337 51.5,54.5C 51.5,54.1667 51.5,53.8333 51.5,53.5C 54.1667,53.5 56.8333,53.5 59.5,53.5C 64.1785,53.6658 68.8452,53.4992 73.5,53C 78.1603,49.1866 81.827,44.6866 84.5,39.5 Z"/></g>
<g><path style="opacity:0.035" fill="#f2f2f2" d="M 361.5,58.5 C 358.753,58.1866 356.086,58.52 353.5,59.5C 358.931,73.2941 364.265,87.1274 369.5,101C 368.357,106.288 365.691,110.621 361.5,114C 358.197,114.215 355.03,114.382 352,114.5C 351.202,116.259 351.369,117.926 352.5,119.5C 358.518,121.228 364.018,120.228 369,116.5C 374.473,105.226 379.64,93.8927 384.5,82.5C 384.778,84.6946 384.778,86.8613 384.5,89C 381.55,94.0158 378.883,99.1825 376.5,104.5C 377.939,106.343 377.772,108.01 376,109.5C 375.667,109.167 375.333,108.833 375,108.5C 373.573,110.705 373.073,112.872 373.5,115C 371.295,117.54 368.795,119.707 366,121.5C 365.586,121.043 365.086,120.709 364.5,120.5C 360.152,121.401 355.818,121.901 351.5,122C 347.313,117.54 347.98,113.873 353.5,111C 360.779,111.22 364.779,107.72 365.5,100.5C 361.797,88.9995 357.797,77.6662 353.5,66.5C 349.476,67.0381 345.476,67.7048 341.5,68.5C 341.179,80.0809 341.512,91.5809 342.5,103C 339.028,104.58 335.362,104.913 331.5,104C 330.978,103.439 330.645,102.772 330.5,102C 330.373,92.862 330.707,83.6953 331.5,74.5C 331.472,70.1009 330.972,69.7675 330,73.5C 329.506,71.8659 329.34,70.1992 329.5,68.5C 327.339,68.1742 325.506,67.1742 324,65.5C 323.837,63.324 323.004,61.4907 321.5,60C 323.49,58.2494 325.823,57.2494 328.5,57C 324.774,55.9568 325.107,55.4568 329.5,55.5C 328.575,38.2681 336.575,31.9347 353.5,36.5C 358.314,42.6531 356.98,46.4865 349.5,48C 351.595,47.4444 351.762,46.9444 350,46.5C 347.823,47.5234 345.656,47.6901 343.5,47C 343.833,47.3333 344.167,47.6667 344.5,48C 341.068,50.367 340.735,53.0337 343.5,56C 343.167,56.3333 342.833,56.6667 342.5,57C 349.013,57.1721 355.347,57.6721 361.5,58.5 Z"/></g>
<g><path style="opacity:0.952" fill="#040404" d="M 349.5,64.5 C 346.167,64.5 342.833,64.5 339.5,64.5C 339.5,77.5 339.5,90.5 339.5,103.5C 337.167,103.5 334.833,103.5 332.5,103.5C 332.5,90.5 332.5,77.5 332.5,64.5C 330.167,64.5 327.833,64.5 325.5,64.5C 325.5,62.5 325.5,60.5 325.5,58.5C 327.833,58.5 330.167,58.5 332.5,58.5C 330.901,40.8366 338.235,35.0032 354.5,41C 353.852,42.4397 353.519,43.9397 353.5,45.5C 342.238,42.423 337.571,46.7563 339.5,58.5C 342.833,58.5 346.167,58.5 349.5,58.5C 349.5,60.5 349.5,62.5 349.5,64.5 Z"/></g>
<g><path style="opacity:0.996" fill="#0e3043" d="M 90.5,47.5 C 94.4976,54.9156 94.1643,62.249 89.5,69.5C 86.9759,65.8944 83.6426,63.2277 79.5,61.5C 82.3801,56.2783 86.0467,51.6117 90.5,47.5 Z"/></g>
<g><path style="opacity:0.055" fill="#f0f0f0" d="M 140.5,51.5 C 146.509,51.3338 152.509,51.5005 158.5,52C 162.785,55.7279 163.618,60.2279 161,65.5C 160.25,66.1258 159.416,66.6258 158.5,67C 152.593,68.3608 146.593,68.8608 140.5,68.5C 140.5,62.8333 140.5,57.1667 140.5,51.5 Z M 145.5,52.5 C 145.189,53.4778 144.522,54.1445 143.5,54.5C 143.167,56.3333 142.833,58.1667 142.5,60C 141.325,65.5074 143.491,68.0074 149,67.5C 156.938,67.8947 160.605,64.228 160,56.5C 155.785,53.1123 150.951,51.779 145.5,52.5 Z"/></g>
<g><path style="opacity:0.004" fill="#fefffe" d="M 172.5,52.5 C 173.638,55.3035 173.805,58.3035 173,61.5C 172.502,58.5184 172.335,55.5184 172.5,52.5 Z"/></g>
<g><path style="opacity:0.996" fill="#000204" d="M 51.5,54.5 C 58.8409,54.3337 66.1742,54.5003 73.5,55C 74.7525,56.8278 74.7525,58.6612 73.5,60.5C 66.1667,60.5 58.8333,60.5 51.5,60.5C 51.5,58.5 51.5,56.5 51.5,54.5 Z"/></g>
<g><path style="opacity:0.004" fill="#fefffe" d="M 286.5,56.5 C 287.251,55.4265 288.251,55.2599 289.5,56C 288.552,56.4828 287.552,56.6495 286.5,56.5 Z"/></g>
<g><path style="opacity:0.004" fill="#fefffe" d="M 309.5,56.5 C 309.897,55.475 310.563,55.3083 311.5,56C 310.906,56.4643 310.239,56.631 309.5,56.5 Z"/></g>
<g><path style="opacity:0.03" fill="#ededed" d="M 246.5,72.5 C 247.322,79.2619 247.656,86.0952 247.5,93C 245.203,97.0951 242.536,100.928 239.5,104.5C 237.705,105.265 235.872,105.932 234,106.5C 227.909,106.59 221.743,106.09 215.5,105C 213.04,103.542 210.873,101.709 209,99.5C 205.674,93.2043 204.008,86.5377 204,79.5C 204.556,81.5951 205.056,81.7618 205.5,80C 203.423,69.2127 207.256,61.3793 217,56.5C 223.743,56.5513 230.577,56.5513 237.5,56.5C 244.205,59.923 247.205,65.2563 246.5,72.5 Z M 224.5,65.5 C 232.776,66.446 236.776,71.1127 236.5,79.5C 236.6,84.0984 235.6,88.4317 233.5,92.5C 222.018,98.2475 216.352,94.5809 216.5,81.5C 216.507,78.4083 217.007,75.4083 218,72.5C 220.033,69.9698 222.2,67.6365 224.5,65.5 Z"/></g>
<g><path style="opacity:0.046" fill="#f2f2f2" d="M 295.5,58.5 C 295.167,58.5 294.833,58.5 294.5,58.5C 292.167,58.5 289.833,58.5 287.5,58.5C 287.719,59.675 287.386,60.675 286.5,61.5C 278.895,56.4575 271.228,56.2908 263.5,61C 255.08,72.5537 254.247,84.7204 261,97.5C 269.116,105.158 277.616,105.491 286.5,98.5C 288.985,111.456 283.651,116.623 270.5,114C 267.461,113.647 264.795,112.48 262.5,110.5C 261.248,112.001 260.248,113.668 259.5,115.5C 261.015,117.082 262.681,118.416 264.5,119.5C 261.235,119.701 258.569,118.534 256.5,116C 257.917,112.751 259.917,109.917 262.5,107.5C 263.354,108.522 264.354,109.355 265.5,110C 271.825,112.457 277.825,111.957 283.5,108.5C 284.246,107.264 284.579,105.93 284.5,104.5C 282.738,104.357 281.071,104.691 279.5,105.5C 274.553,104.717 269.553,104.217 264.5,104C 262.246,102.623 260.08,101.123 258,99.5C 255.464,90.3458 254.464,81.0125 255,71.5C 257.811,60.4773 264.644,55.144 275.5,55.5C 277.765,55.9397 279.932,56.6064 282,57.5C 282.414,57.0426 282.914,56.7093 283.5,56.5C 287.635,57.1091 291.635,57.7757 295.5,58.5 Z"/></g>
<g><path style="opacity:0.967" fill="#090909" d="M 246.5,72.5 C 247.012,80.0053 246.178,87.3387 244,94.5C 241.993,99.8378 238.159,103.004 232.5,104C 219.587,106.966 211.42,102.133 208,89.5C 206.664,80.8316 207.664,72.4983 211,64.5C 217.153,58.0828 224.653,55.9161 233.5,58C 240.499,60.5324 244.833,65.3658 246.5,72.5 Z M 224.5,65.5 C 222.2,67.6365 220.033,69.9698 218,72.5C 217.007,75.4083 216.507,78.4083 216.5,81.5C 216.352,94.5809 222.018,98.2475 233.5,92.5C 235.6,88.4317 236.6,84.0984 236.5,79.5C 236.776,71.1127 232.776,66.446 224.5,65.5 Z"/></g>
<g><path style="opacity:0.962" fill="#0a0a0a" d="M 294.5,58.5 C 294.5,74.1667 294.5,89.8333 294.5,105.5C 294.067,114.433 289.4,119.266 280.5,120C 276.514,120.499 272.514,120.666 268.5,120.5C 266.901,120.768 265.568,120.434 264.5,119.5C 262.681,118.416 261.015,117.082 259.5,115.5C 260.248,113.668 261.248,112.001 262.5,110.5C 264.795,112.48 267.461,113.647 270.5,114C 283.651,116.623 288.985,111.456 286.5,98.5C 277.616,105.491 269.116,105.158 261,97.5C 254.247,84.7204 255.08,72.5537 263.5,61C 271.228,56.2908 278.895,56.4575 286.5,61.5C 287.386,60.675 287.719,59.675 287.5,58.5C 289.833,58.5 292.167,58.5 294.5,58.5 Z M 272.5,65.5 C 281.922,65.5857 285.922,70.2523 284.5,79.5C 284.333,82.5 284.167,85.5 284,88.5C 272.986,98.0602 266.819,95.3935 265.5,80.5C 265.682,77.7737 266.182,75.1071 267,72.5C 268.721,69.9612 270.554,67.6278 272.5,65.5 Z"/></g>
<g><path style="opacity:0.026" fill="#f2f2f2" d="M 384.5,82.5 C 387.004,74.4899 390.004,66.6566 393.5,59C 390.773,58.1816 388.106,58.3483 385.5,59.5C 381.687,69.6134 377.687,79.6134 373.5,89.5C 368.715,79.479 364.715,69.1456 361.5,58.5C 364.062,63.2973 366.562,68.2973 369,73.5C 370.508,77.674 372.841,78.3407 376,75.5C 378.5,69.8333 381,64.1667 383.5,58.5C 387.107,57.5108 390.774,57.1774 394.5,57.5C 394.662,59.5273 394.495,61.5273 394,63.5C 390.787,69.9252 387.621,76.2585 384.5,82.5 Z"/></g>
<g><path style="opacity:0.93" fill="#a6a6a6" d="M 15.5,58.5 C 15.3334,72.1707 15.5001,85.8374 16,99.5C 17.1362,101.743 17.9695,104.076 18.5,106.5C 10.8605,102.401 7.19388,95.9015 7.5,87C 9.08277,77.099 11.7494,67.599 15.5,58.5 Z"/></g>
<g><path style="opacity:0.996" fill="#2780b4" d="M 40.5,53.5 C 43.1667,53.5 45.8333,53.5 48.5,53.5C 48.3816,59.4033 45.3816,61.7366 39.5,60.5C 39.8693,58.5588 40.536,56.7255 41.5,55C 40.944,54.6174 40.6107,54.1174 40.5,53.5 Z"/></g>
<g><path style="opacity:0.949" fill="#090909" d="M 361.5,58.5 C 364.715,69.1456 368.715,79.479 373.5,89.5C 377.687,79.6134 381.687,69.6134 385.5,59.5C 388.106,58.3483 390.773,58.1816 393.5,59C 390.004,66.6566 387.004,74.4899 384.5,82.5C 379.64,93.8927 374.473,105.226 369,116.5C 364.018,120.228 358.518,121.228 352.5,119.5C 351.369,117.926 351.202,116.259 352,114.5C 355.03,114.382 358.197,114.215 361.5,114C 365.691,110.621 368.357,106.288 369.5,101C 364.265,87.1274 358.931,73.2941 353.5,59.5C 356.086,58.52 358.753,58.1866 361.5,58.5 Z"/></g>
<g><path style="opacity:0.147" fill="#c0c0c0" d="M 294.5,58.5 C 294.833,58.5 295.167,58.5 295.5,58.5C 295.861,70.9874 295.861,83.6541 295.5,96.5C 295.81,99.7131 295.477,102.713 294.5,105.5C 294.5,89.8333 294.5,74.1667 294.5,58.5 Z"/></g>
<g><path style="opacity:0.996" fill="#164865" d="M 32.5,47.5 C 34.3187,50.6547 36.9854,52.6547 40.5,53.5C 40.6107,54.1174 40.944,54.6174 41.5,55C 40.536,56.7255 39.8693,58.5588 39.5,60.5C 36.5268,61.8103 34.1935,63.8103 32.5,66.5C 32.5,60.1667 32.5,53.8333 32.5,47.5 Z"/></g>
<g><path style="opacity:0.059" fill="#eeeeee" d="M 222.5,63.5 C 229.74,62.3685 234.906,65.0352 238,71.5C 238.667,77.8333 238.667,84.1667 238,90.5C 234.253,98.1186 228.42,100.285 220.5,97C 217.16,94.3283 215.326,90.8283 215,86.5C 212.456,76.9676 214.956,69.3009 222.5,63.5 Z M 224.5,65.5 C 222.2,67.6365 220.033,69.9698 218,72.5C 217.007,75.4083 216.507,78.4083 216.5,81.5C 216.352,94.5809 222.018,98.2475 233.5,92.5C 235.6,88.4317 236.6,84.0984 236.5,79.5C 236.776,71.1127 232.776,66.446 224.5,65.5 Z"/></g>
<g><path style="opacity:0.036" fill="#efefef" d="M 272.5,63.5 C 278.002,63.2782 282.835,64.9448 287,68.5C 287.667,76.1667 287.667,83.8333 287,91.5C 282.377,96.0207 276.877,97.5207 270.5,96C 267.824,94.1604 265.991,91.6604 265,88.5C 264.333,83.1667 264.333,77.8333 265,72.5C 266.642,68.6997 269.142,65.6997 272.5,63.5 Z M 272.5,65.5 C 270.554,67.6278 268.721,69.9612 267,72.5C 266.182,75.1071 265.682,77.7737 265.5,80.5C 266.819,95.3935 272.986,98.0602 284,88.5C 284.167,85.5 284.333,82.5 284.5,79.5C 285.922,70.2523 281.922,65.5857 272.5,65.5 Z"/></g>
<g><path style="opacity:0.22" fill="#b0b0b0" d="M 349.5,64.5 C 346.713,65.4767 343.713,65.81 340.5,65.5C 340.829,78.3443 340.495,91.011 339.5,103.5C 339.5,90.5 339.5,77.5 339.5,64.5C 342.833,64.5 346.167,64.5 349.5,64.5 Z"/></g>
<g><path style="opacity:0.996" fill="#37b4fc" d="M 51.5,60.5 C 51.5,66.5 51.5,72.5 51.5,78.5C 51.5,80.8333 51.5,83.1667 51.5,85.5C 51.8092,90.2675 51.3092,94.9342 50,99.5C 48.6032,101.07 47.1032,102.404 45.5,103.5C 40.8077,104.488 37.141,103.154 34.5,99.5C 35.7298,97.7028 36.3964,95.7028 36.5,93.5C 37.7952,90.6366 39.4618,87.97 41.5,85.5C 42.7766,82.9659 42.7766,80.4659 41.5,78C 44.1969,72.4094 46.1969,66.5761 47.5,60.5C 48.8333,60.5 50.1667,60.5 51.5,60.5 Z"/></g>
<g><path style="opacity:0.025" fill="#f6f6f6" d="M 157.5,76.5 C 166.319,78.1375 168.819,83.1375 165,91.5C 163.117,94.0244 160.617,95.3577 157.5,95.5C 152.167,95.5 146.833,95.5 141.5,95.5C 141.5,89.1667 141.5,82.8333 141.5,76.5C 146.833,76.5 152.167,76.5 157.5,76.5 Z M 160.5,92.5 C 164.728,87.5915 164.395,83.0915 159.5,79C 153.896,76.8715 148.396,77.0382 143,79.5C 139.996,92.8266 145.163,97.6599 158.5,94C 159.416,93.7216 160.082,93.2216 160.5,92.5 Z"/></g>
<g><path style="opacity:0.996" fill="#2476a6" d="M 51.5,60.5 C 58.8333,60.5 66.1667,60.5 73.5,60.5C 75.5,60.8333 77.5,61.1667 79.5,61.5C 83.6426,63.2277 86.9759,65.8944 89.5,69.5C 93.26,75.1781 94.26,81.1781 92.5,87.5C 92.6602,85.8008 92.4935,84.1341 92,82.5C 91.2825,83.4506 90.4491,83.6172 89.5,83C 91.3293,81.8867 92.1626,80.3867 92,78.5C 84.3624,86.4515 77.1957,94.7848 70.5,103.5C 65.1667,103.5 59.8333,103.5 54.5,103.5C 59.5,97.5 64.5,91.5 69.5,85.5C 73.9346,85.2479 75.268,83.0812 73.5,79C 66.1742,78.5003 58.8409,78.3337 51.5,78.5C 51.5,72.5 51.5,66.5 51.5,60.5 Z"/></g>
<g><path style="opacity:0.996" fill="#070e13" d="M 51.5,78.5 C 58.8409,78.3337 66.1742,78.5003 73.5,79C 75.268,83.0812 73.9346,85.2479 69.5,85.5C 63.5,85.5 57.5,85.5 51.5,85.5C 51.5,83.1667 51.5,80.8333 51.5,78.5 Z"/></g>
<g><path style="opacity:0.167" fill="#b5b5b5" d="M 157.5,76.5 C 152.167,76.5 146.833,76.5 141.5,76.5C 141.5,82.8333 141.5,89.1667 141.5,95.5C 146.833,95.5 152.167,95.5 157.5,95.5C 152.025,96.4889 146.358,96.8222 140.5,96.5C 140.5,89.5 140.5,82.5 140.5,75.5C 146.358,75.1778 152.025,75.5111 157.5,76.5 Z"/></g>
<g><path style="opacity:0.004" fill="#fefffe" d="M 176.5,84.5 C 177.622,86.2884 177.789,88.2884 177,90.5C 176.505,88.5273 176.338,86.5273 176.5,84.5 Z"/></g>
<g><path style="opacity:0.996" fill="#1d6087" d="M 51.5,85.5 C 57.5,85.5 63.5,85.5 69.5,85.5C 64.5,91.5 59.5,97.5 54.5,103.5C 51.5,103.5 48.5,103.5 45.5,103.5C 47.1032,102.404 48.6032,101.07 50,99.5C 51.3092,94.9342 51.8092,90.2675 51.5,85.5 Z"/></g>
<g><path style="opacity:0.996" fill="#2a8bc3" d="M 92.5,87.5 C 89.4201,98.5688 82.0868,103.902 70.5,103.5C 77.1957,94.7848 84.3624,86.4515 92,78.5C 92.1626,80.3867 91.3293,81.8867 89.5,83C 90.4491,83.6172 91.2825,83.4506 92,82.5C 92.4935,84.1341 92.6602,85.8008 92.5,87.5 Z"/></g>
<g><path style="opacity:0.198" fill="#e8e8e8" d="M 309.5,56.5 C 313.319,56.9488 316.985,58.1154 320.5,60C 318.77,63.8515 317.937,68.0182 318,72.5C 317.893,83.0797 317.726,93.5797 317.5,104C 316,104.167 314.5,104.333 313,104.5C 311.019,104.371 309.353,103.704 308,102.5C 306.559,87.3314 306.059,72.8314 306.5,59C 307.373,57.955 308.373,57.1217 309.5,56.5 Z"/></g>
<g><path style="opacity:0.94" fill="#000000" d="M 309.5,58.5 C 311.833,58.5 314.167,58.5 316.5,58.5C 316.5,73.5 316.5,88.5 316.5,103.5C 314.167,103.5 311.833,103.5 309.5,103.5C 309.5,88.5 309.5,73.5 309.5,58.5 Z"/></g>
<g><path style="opacity:0.996" fill="#2d92cc" d="M 32.5,72.5 C 33.7001,76.3576 36.3668,78.3576 40.5,78.5C 38.7845,83.3265 37.4512,88.3265 36.5,93.5C 36.3964,95.7028 35.7298,97.7028 34.5,99.5C 33.7784,99.0825 33.2784,98.4158 33,97.5C 32.5003,89.1733 32.3336,80.84 32.5,72.5 Z"/></g>
<g><path style="opacity:0.004" fill="#fefffe" d="M 329.5,97.5 C 330.525,97.8966 330.692,98.5632 330,99.5C 329.536,98.9056 329.369,98.2389 329.5,97.5 Z"/></g>
<g><path style="opacity:0.004" fill="#fefffe" d="M 269.5,105.5 C 270.833,106.167 270.833,106.167 269.5,105.5 Z"/></g>
<g><path style="opacity:0.004" fill="#fefffe" d="M 309.5,106.5 C 310.251,105.427 311.251,105.26 312.5,106C 311.552,106.483 310.552,106.649 309.5,106.5 Z"/></g>
<g><path style="opacity:0.004" fill="#fefffe" d="M 336.5,105.5 C 337.833,106.167 337.833,106.167 336.5,105.5 Z"/></g>
<g><path style="opacity:0.004" fill="#fefffe" d="M 338.5,106.5 C 338.897,105.475 339.563,105.308 340.5,106C 339.906,106.464 339.239,106.631 338.5,106.5 Z"/></g>
<g><path style="opacity:0.028" fill="#f0f0f0" d="M 295.5,96.5 C 296.338,100.623 296.671,104.79 296.5,109C 295.18,114.988 291.68,119.154 286,121.5C 280.093,121.615 274.26,121.281 268.5,120.5C 272.514,120.666 276.514,120.499 280.5,120C 289.4,119.266 294.067,114.433 294.5,105.5C 295.477,102.713 295.81,99.7131 295.5,96.5 Z"/></g>
<g><path style="opacity:0.842" fill="#a3a3a3" d="M 101.5,112.5 C 97.3856,120.981 90.5523,125.314 81,125.5C 71.8399,123.085 62.6732,120.752 53.5,118.5C 52.5,117.833 51.5,117.167 50.5,116.5C 64.8372,116.667 79.1705,116.5 93.5,116C 96.3098,115.094 98.9764,113.927 101.5,112.5 Z"/></g>
</svg>
